<svg width="264" height="48" viewBox="0 0 264 48" fill="none" xmlns="http://www.w3.org/2000/svg">
<path d="M11.375 7.875V20.25H17.5C19.8333 20.25 21.6667 19.6667 23 18.5C24.3333 17.3333 25 15.4375 25 12.8125C25 10.5208 24.25 8.75 22.75 7.5C21.25 6.25 19.3542 5.625 17.0625 5.625H13.875C12.2083 5.625 11.375 6.375 11.375 7.875ZM11.375 39.8125C11.375 41.3125 12.2292 42.0625 13.9375 42.0625H17.1875C20.0208 42.0625 22.3542 41.375 24.1875 40C26.0625 38.5833 27 36.5417 27 33.875C27 30.75 26.125 28.4792 24.375 27.0625C22.625 25.6042 20.375 24.875 17.625 24.875H11.375V39.8125ZM18.3125 46.5H4.75V8.375C4.75 7.08333 4.64583 6.20833 4.4375 5.75C4.22917 5.25 3.83333 4.91667 3.25 4.75C2.54167 4.54167 1.97917 4.29167 1.5625 4C1.14583 3.70833 0.9375 3.29167 0.9375 2.75C0.9375 1.70833 1.64583 1.1875 3.0625 1.1875H17.6875C22.1875 1.1875 25.6875 2.14583 28.1875 4.0625C30.6875 5.97917 31.9375 8.70833 31.9375 12.25C31.9375 14.7917 31.2917 16.9583 30 18.75C28.75 20.5 27.375 21.6458 25.875 22.1875C28 22.7292 29.875 24 31.5 26C33.125 28 33.9375 30.625 33.9375 33.875C33.9375 37.6667 32.6458 40.7292 30.0625 43.0625C27.4792 45.3542 23.5625 46.5 18.3125 46.5ZM63.0625 46.5L58.5 32.125H45.375L40.8125 46.5H34.375L46.4375 9.25C47.1042 7.08333 47.3542 5.83333 47.1875 5.5C47.0208 5.125 46.625 4.85417 46 4.6875C45.2083 4.52083 44.5833 4.3125 44.125 4.0625C43.7083 3.77083 43.5 3.3125 43.5 2.6875C43.5 1.6875 44.2708 1.1875 45.8125 1.1875H55.0625L70.1875 46.5H63.0625ZM57 27.5L51.8125 11.4375L46.75 27.5H57ZM81.75 1.1875L97.0625 34.6875V1.1875H103.5V43.625C103.5 45.5417 102.354 46.5 100.062 46.5H96L80.0625 12.125V46.5H74V8.3125C74 7.0625 73.9375 6.20833 73.8125 5.75C73.6875 5.25 73.3542 4.91667 72.8125 4.75C72.1042 4.54167 71.5 4.33333 71 4.125C70.5 3.91667 70.25 3.5 70.25 2.875C70.25 1.75 71.0417 1.1875 72.625 1.1875H81.75ZM142.312 24.75V43.25C139.271 45.3333 135.375 46.5208 130.625 46.8125C125.875 47.0625 121.896 46.2292 118.688 44.3125C115.729 42.5208 113.271 39.8958 111.312 36.4375C109.396 32.9375 108.417 28.5833 108.375 23.375C108.333 16.5417 109.979 11 113.312 6.75C116.646 2.5 121.521 0.375 127.938 0.375C132.021 0.375 135.458 1.47917 138.25 3.6875C141.042 5.85417 142.438 8.35417 142.438 11.1875H135.375C135.25 9.39583 134.438 7.95833 132.938 6.875C131.438 5.75 129.688 5.1875 127.688 5.1875C124.521 5.1875 121.667 6.64583 119.125 9.5625C116.625 12.4375 115.375 16.7083 115.375 22.375C115.375 28.5833 116.688 33.3542 119.312 36.6875C121.979 39.9792 125.312 41.7083 129.312 41.875C130.104 41.9167 131.062 41.8958 132.188 41.8125C133.354 41.6875 134.5 41.4167 135.625 41V31.5C135.625 29.25 135.188 27.8333 134.312 27.25C133.438 26.625 131.833 26.2917 129.5 26.25C128.625 26.25 128.188 25.6458 128.188 24.4375C128.188 23.2292 128.646 22.625 129.562 22.625H140.125C141.583 22.625 142.312 23.3333 142.312 24.75ZM149.5 29.75V8.375C149.5 7.125 149.396 6.27083 149.188 5.8125C149.021 5.35417 148.688 5.04167 148.188 4.875C147.521 4.70833 146.875 4.47917 146.25 4.1875C145.667 3.89583 145.375 3.45833 145.375 2.875C145.375 1.79167 146.188 1.25 147.812 1.25H153.875C155.417 1.25 156.188 1.91667 156.188 3.25V28.6875C156.188 33.1458 156.854 36.4792 158.188 38.6875C159.562 40.8958 161.667 42 164.5 42C167.208 42 169.333 41.0208 170.875 39.0625C172.458 37.1042 173.25 33.6875 173.25 28.8125V1.1875H179.562V28.875C179.562 35.4583 178.208 40.1042 175.5 42.8125C172.833 45.5208 169.167 46.875 164.5 46.875C159.833 46.875 156.167 45.4792 153.5 42.6875C150.833 39.8958 149.5 35.5833 149.5 29.75ZM194.438 46.5H187.75V8.375C187.75 7.08333 187.667 6.22917 187.5 5.8125C187.333 5.35417 186.979 5.02083 186.438 4.8125C185.688 4.5625 185.021 4.33333 184.438 4.125C183.896 3.875 183.625 3.45833 183.625 2.875C183.625 1.75 184.438 1.1875 186.062 1.1875H192.125C193.667 1.1875 194.438 1.85417 194.438 3.1875V46.5ZM210.812 1.1875L226.125 34.6875V1.1875H232.562V43.625C232.562 45.5417 231.417 46.5 229.125 46.5H225.062L209.125 12.125V46.5H203.062V8.3125C203.062 7.0625 203 6.20833 202.875 5.75C202.75 5.25 202.417 4.91667 201.875 4.75C201.167 4.54167 200.562 4.33333 200.062 4.125C199.562 3.91667 199.312 3.5 199.312 2.875C199.312 1.75 200.104 1.1875 201.688 1.1875H210.812ZM256.812 33.875C256.688 32.0833 255.917 30.5 254.5 29.125C253.125 27.7083 250.938 26.2083 247.938 24.625C244.604 22.9583 242.042 21.0833 240.25 19C238.458 16.875 237.625 14.2292 237.75 11.0625C237.833 7.97917 239.021 5.4375 241.312 3.4375C243.646 1.39583 246.771 0.375 250.688 0.375C252.938 0.375 254.792 0.520833 256.25 0.8125C257.75 1.10417 259.417 1.5 261.25 2V7.625C259.083 6.66667 257.146 5.97917 255.438 5.5625C253.771 5.14583 252.229 4.9375 250.812 4.9375C249.271 4.9375 247.854 5.5 246.562 6.625C245.271 7.75 244.625 9.3125 244.625 11.3125C244.625 13.1458 245.375 14.7708 246.875 16.1875C248.417 17.5625 250.812 19.125 254.062 20.875C257.271 22.625 259.688 24.5625 261.312 26.6875C262.938 28.7708 263.75 31.2083 263.75 34C263.75 37.5 262.542 40.4792 260.125 42.9375C257.708 45.3958 254.146 46.7292 249.438 46.9375C247.688 47.0208 245.833 46.875 243.875 46.5C241.917 46.0833 240.333 45.4792 239.125 44.6875C238.375 44.2292 237.854 43.6667 237.562 43C237.312 42.3333 237.354 41.625 237.688 40.875C238.021 40.1667 238.562 39.7083 239.312 39.5C240.104 39.2917 241.042 39.5 242.125 40.125C243.042 40.5833 244.188 41.0208 245.562 41.4375C246.938 41.8125 248.208 41.9583 249.375 41.875C251.917 41.7083 253.833 40.8958 255.125 39.4375C256.417 37.9375 256.979 36.0833 256.812 33.875Z" fill="black"/>
</svg>
